<?xml version="1.0" encoding="UTF-8" standalone="no" ?>
<!DOCTYPE svg PUBLIC "-//W3C//DTD SVG 1.1//EN" "http://www.w3.org/Graphics/SVG/1.1/DTD/svg11.dtd">
<svg xmlns="http://www.w3.org/2000/svg" xmlns:xlink="http://www.w3.org/1999/xlink" version="1.1" width="640" height="640" viewBox="0 0 640 640" xml:space="preserve">
<desc>Created with Fabric.js 4.6.0</desc>
<defs>
</defs>
<g transform="matrix(1.24 0 0 1.24 320 320)" id="yW9N18LKvUvCmLlO18IeB"  >
<g style="" vector-effect="non-scaling-stroke"   >
		<g transform="matrix(2.77 0 0 2.73 -3.71 244.51)" id="XubJlfbg-cOQMMoFCrMwe"  >
<path style="stroke: rgb(0,0,0); stroke-width: 1; stroke-dasharray: none; stroke-linecap: butt; stroke-dashoffset: 0; stroke-linejoin: miter; stroke-miterlimit: 4; fill: rgb(255,255,255); fill-opacity: 0; fill-rule: nonzero; opacity: 1;" vector-effect="non-scaling-stroke"  transform=" translate(0, 0)" d="M 0 0 z" stroke-linecap="round" />
</g>
		<g transform="matrix(2.77 0 0 2.73 -198.78 29.66)" id="2DxL-tvtJYO2qCepMnlht" clip-path="url(#CLIPPATH_115)"  >
<clipPath id="CLIPPATH_115" >
	<path transform="matrix(1 0 0 1 0.06 0.15) translate(-112.66, -178.41)" id="a" d="M 93.3125 159.238281 L 132 159.238281 L 132 197.589844 L 93.3125 197.589844 Z M 93.3125 159.238281" stroke-linecap="round" />
</clipPath>
<path style="stroke: none; stroke-width: 1; stroke-dasharray: none; stroke-linecap: butt; stroke-dashoffset: 0; stroke-linejoin: miter; stroke-miterlimit: 4; fill: rgb(0,150,255); fill-rule: nonzero; opacity: 1;" vector-effect="non-scaling-stroke"  transform=" translate(-112.59, -178.27)" d="M 112.476562 159.246094 C 111.855469 159.25 111.234375 159.285156 110.617188 159.347656 C 110 159.414062 109.386719 159.507812 108.777344 159.632812 C 108.167969 159.757812 107.566406 159.914062 106.976562 160.097656 C 106.382812 160.28125 105.796875 160.492188 105.226562 160.734375 C 104.652344 160.976562 104.09375 161.246094 103.546875 161.542969 C 103 161.835938 102.472656 162.160156 101.957031 162.507812 C 101.441406 162.855469 100.945312 163.230469 100.46875 163.628906 C 99.988281 164.023438 99.53125 164.445312 99.09375 164.886719 C 98.65625 165.328125 98.242188 165.789062 97.851562 166.273438 C 97.460938 166.757812 97.09375 167.257812 96.75 167.777344 C 96.40625 168.296875 96.089844 168.832031 95.800781 169.378906 C 95.511719 169.929688 95.246094 170.492188 95.011719 171.070312 C 94.777344 171.644531 94.570312 172.230469 94.394531 172.828125 C 94.214844 173.421875 94.066406 174.027344 93.949219 174.636719 C 93.832031 175.25 93.742188 175.863281 93.683594 176.484375 C 93.625 177.101562 93.597656 177.722656 93.601562 178.34375 C 93.601562 178.96875 93.636719 179.589844 93.699219 180.207031 C 93.761719 180.828125 93.855469 181.441406 93.980469 182.050781 C 94.101562 182.660156 94.257812 183.261719 94.4375 183.855469 C 94.621094 184.453125 94.832031 185.035156 95.074219 185.609375 C 95.3125 186.183594 95.578125 186.746094 95.875 187.292969 C 96.167969 187.839844 96.488281 188.371094 96.835938 188.886719 C 97.183594 189.402344 97.554688 189.902344 97.949219 190.382812 C 98.347656 190.863281 98.765625 191.320312 99.203125 191.757812 C 99.644531 192.199219 100.105469 192.613281 100.585938 193.007812 C 101.070312 193.398438 101.570312 193.769531 102.085938 194.113281 C 102.605469 194.457031 103.136719 194.777344 103.683594 195.066406 C 104.234375 195.359375 104.796875 195.625 105.371094 195.859375 C 105.945312 196.097656 106.53125 196.304688 107.125 196.484375 C 107.71875 196.664062 108.320312 196.8125 108.929688 196.933594 C 109.539062 197.050781 110.15625 197.140625 110.773438 197.203125 C 111.390625 197.261719 112.011719 197.289062 112.632812 197.289062 C 113.253906 197.289062 113.875 197.257812 114.492188 197.195312 C 115.109375 197.132812 115.722656 197.039062 116.332031 196.917969 C 116.941406 196.792969 117.542969 196.640625 118.136719 196.460938 C 118.730469 196.277344 119.316406 196.070312 119.890625 195.828125 C 120.460938 195.589844 121.023438 195.324219 121.570312 195.03125 C 122.117188 194.738281 122.648438 194.417969 123.167969 194.070312 C 123.683594 193.722656 124.179688 193.351562 124.660156 192.957031 C 125.140625 192.5625 125.597656 192.144531 126.039062 191.703125 C 126.476562 191.261719 126.894531 190.804688 127.285156 190.320312 C 127.679688 189.839844 128.050781 189.339844 128.394531 188.824219 C 128.738281 188.304688 129.058594 187.773438 129.351562 187.222656 C 129.644531 186.675781 129.90625 186.113281 130.144531 185.539062 C 130.382812 184.960938 130.589844 184.378906 130.769531 183.78125 C 130.953125 183.1875 131.101562 182.582031 131.222656 181.972656 C 131.34375 181.363281 131.433594 180.75 131.496094 180.128906 C 131.558594 179.511719 131.585938 178.890625 131.585938 178.269531 C 131.585938 177.644531 131.550781 177.019531 131.488281 176.398438 C 131.421875 175.777344 131.328125 175.160156 131.203125 174.546875 C 131.078125 173.9375 130.925781 173.332031 130.742188 172.734375 C 130.558594 172.136719 130.347656 171.550781 130.105469 170.976562 C 129.863281 170.398438 129.597656 169.835938 129.300781 169.285156 C 129.003906 168.738281 128.683594 168.203125 128.332031 167.683594 C 127.984375 167.167969 127.613281 166.667969 127.214844 166.183594 C 126.816406 165.703125 126.398438 165.242188 125.957031 164.800781 C 125.515625 164.363281 125.050781 163.945312 124.566406 163.550781 C 124.085938 163.152344 123.582031 162.785156 123.0625 162.4375 C 122.542969 162.09375 122.007812 161.773438 121.457031 161.480469 C 120.90625 161.1875 120.34375 160.921875 119.765625 160.683594 C 119.191406 160.445312 118.601562 160.238281 118.003906 160.058594 C 117.410156 159.878906 116.804688 159.726562 116.191406 159.605469 C 115.578125 159.484375 114.964844 159.394531 114.34375 159.335938 C 113.722656 159.273438 113.101562 159.246094 112.476562 159.246094 Z M 112.476562 194.335938 C 111.953125 194.335938 111.429688 194.304688 110.90625 194.25 C 110.382812 194.199219 109.867188 194.117188 109.351562 194.011719 C 108.839844 193.90625 108.332031 193.777344 107.828125 193.621094 C 107.328125 193.46875 106.835938 193.289062 106.351562 193.085938 C 105.867188 192.882812 105.394531 192.652344 104.933594 192.40625 C 104.472656 192.15625 104.023438 191.882812 103.589844 191.589844 C 103.152344 191.292969 102.734375 190.980469 102.332031 190.644531 C 101.925781 190.308594 101.539062 189.953125 101.171875 189.582031 C 100.800781 189.207031 100.453125 188.816406 100.121094 188.410156 C 99.789062 188 99.480469 187.578125 99.191406 187.140625 C 98.902344 186.703125 98.632812 186.25 98.386719 185.785156 C 98.144531 185.320312 97.921875 184.84375 97.722656 184.359375 C 97.523438 183.871094 97.347656 183.378906 97.199219 182.875 C 97.050781 182.371094 96.925781 181.859375 96.824219 181.34375 C 96.722656 180.828125 96.648438 180.308594 96.601562 179.785156 C 96.550781 179.261719 96.527344 178.738281 96.53125 178.214844 C 96.535156 177.6875 96.5625 177.164062 96.613281 176.640625 C 96.667969 176.117188 96.75 175.597656 96.851562 175.085938 C 96.957031 174.570312 97.085938 174.0625 97.242188 173.558594 C 97.394531 173.058594 97.574219 172.5625 97.777344 172.078125 C 97.980469 171.59375 98.207031 171.121094 98.457031 170.660156 C 98.707031 170.195312 98.976562 169.746094 99.269531 169.3125 C 99.5625 168.875 99.878906 168.457031 100.210938 168.050781 C 100.546875 167.644531 100.898438 167.257812 101.273438 166.886719 C 101.644531 166.519531 102.035156 166.167969 102.441406 165.835938 C 102.847656 165.503906 103.273438 165.191406 103.710938 164.902344 C 104.148438 164.613281 104.597656 164.34375 105.0625 164.097656 C 105.523438 163.851562 106 163.632812 106.484375 163.433594 C 106.96875 163.234375 107.464844 163.058594 107.96875 162.90625 C 108.46875 162.757812 108.980469 162.632812 109.492188 162.53125 C 110.007812 162.429688 110.527344 162.355469 111.050781 162.304688 C 111.574219 162.257812 112.097656 162.234375 112.621094 162.234375 C 113.144531 162.238281 113.667969 162.265625 114.191406 162.320312 C 114.710938 162.371094 115.230469 162.449219 115.746094 162.554688 C 116.257812 162.660156 116.765625 162.789062 117.269531 162.945312 C 117.769531 163.097656 118.261719 163.277344 118.746094 163.480469 C 119.230469 163.683594 119.703125 163.910156 120.164062 164.160156 C 120.628906 164.410156 121.074219 164.679688 121.511719 164.972656 C 121.945312 165.265625 122.367188 165.582031 122.769531 165.917969 C 123.175781 166.25 123.5625 166.605469 123.933594 166.976562 C 124.300781 167.351562 124.652344 167.742188 124.984375 168.148438 C 125.316406 168.554688 125.625 168.976562 125.914062 169.417969 C 126.207031 169.855469 126.472656 170.304688 126.71875 170.769531 C 126.964844 171.234375 127.1875 171.710938 127.386719 172.195312 C 127.585938 172.683594 127.761719 173.175781 127.910156 173.679688 C 128.0625 174.183594 128.1875 174.691406 128.289062 175.207031 C 128.386719 175.722656 128.460938 176.242188 128.511719 176.765625 C 128.5625 177.289062 128.585938 177.816406 128.585938 178.339844 C 128.578125 179.394531 128.46875 180.4375 128.253906 181.46875 C 128.042969 182.5 127.734375 183.503906 127.324219 184.476562 C 126.914062 185.445312 126.417969 186.367188 125.828125 187.242188 C 125.238281 188.113281 124.570312 188.921875 123.824219 189.664062 C 123.078125 190.40625 122.265625 191.070312 121.386719 191.652344 C 120.511719 192.234375 119.585938 192.726562 118.613281 193.125 C 117.640625 193.527344 116.636719 193.828125 115.601562 194.03125 C 114.570312 194.238281 113.527344 194.335938 112.476562 194.335938 Z M 112.476562 194.335938" stroke-linecap="round" />
</g>
		<g transform="matrix(2.77 0 0 2.73 -154.51 73.75)" id="lDhtf4WRYA_njuK7xLQ6p"  >
<path style="stroke: none; stroke-width: 1; stroke-dasharray: none; stroke-linecap: butt; stroke-dashoffset: 0; stroke-linejoin: miter; stroke-miterlimit: 4; fill: rgb(0,150,255); fill-rule: nonzero; opacity: 1;" vector-effect="non-scaling-stroke"  transform=" translate(-128.57, -194.42)" d="M 131.652344 194.699219 L 128.277344 191.339844 C 127.433594 192.332031 126.503906 193.238281 125.492188 194.054688 L 128.9375 197.507812 C 129.164062 196.863281 129.519531 196.296875 130.003906 195.8125 L 130.105469 195.714844 C 130.546875 195.265625 131.0625 194.925781 131.652344 194.699219 Z M 131.652344 194.699219" stroke-linecap="round" />
</g>
		<g transform="matrix(2.77 0 0 2.73 198.77 26.06)" id="024uQWNik37Hez6copBoK"  >
<path style="stroke: none; stroke-width: 1; stroke-dasharray: none; stroke-linecap: butt; stroke-dashoffset: 0; stroke-linejoin: miter; stroke-miterlimit: 4; fill: rgb(0,150,255); fill-rule: nonzero; opacity: 1;" vector-effect="non-scaling-stroke"  transform=" translate(-256.11, -176.95)" d="M 256.238281 157.933594 C 256.859375 157.9375 257.480469 157.972656 258.097656 158.035156 C 258.714844 158.101562 259.328125 158.195312 259.9375 158.320312 C 260.542969 158.445312 261.144531 158.601562 261.738281 158.785156 C 262.332031 158.96875 262.914062 159.183594 263.488281 159.425781 C 264.058594 159.667969 264.617188 159.933594 265.164062 160.230469 C 265.710938 160.527344 266.242188 160.851562 266.753906 161.199219 C 267.269531 161.546875 267.765625 161.921875 268.246094 162.320312 C 268.722656 162.714844 269.179688 163.136719 269.617188 163.578125 C 270.054688 164.019531 270.46875 164.484375 270.859375 164.964844 C 271.25 165.449219 271.617188 165.949219 271.960938 166.46875 C 272.300781 166.988281 272.617188 167.523438 272.90625 168.074219 C 273.199219 168.625 273.460938 169.1875 273.695312 169.761719 C 273.929688 170.339844 274.136719 170.925781 274.3125 171.519531 C 274.492188 172.117188 274.640625 172.71875 274.757812 173.332031 C 274.875 173.941406 274.964844 174.554688 275.023438 175.175781 C 275.078125 175.796875 275.109375 176.417969 275.105469 177.039062 C 275.101562 177.660156 275.070312 178.28125 275.003906 178.898438 C 274.941406 179.519531 274.847656 180.132812 274.722656 180.742188 C 274.601562 181.351562 274.449219 181.953125 274.265625 182.546875 C 274.082031 183.144531 273.871094 183.726562 273.628906 184.300781 C 273.390625 184.875 273.125 185.4375 272.828125 185.984375 C 272.535156 186.53125 272.210938 187.0625 271.867188 187.578125 C 271.519531 188.09375 271.148438 188.59375 270.75 189.070312 C 270.355469 189.550781 269.9375 190.011719 269.496094 190.449219 C 269.054688 190.886719 268.59375 191.304688 268.113281 191.695312 C 267.632812 192.089844 267.132812 192.457031 266.617188 192.800781 C 266.097656 193.144531 265.566406 193.464844 265.015625 193.753906 C 264.46875 194.046875 263.90625 194.3125 263.332031 194.546875 C 262.757812 194.785156 262.171875 194.992188 261.578125 195.171875 C 260.980469 195.351562 260.378906 195.5 259.769531 195.621094 C 259.160156 195.738281 258.546875 195.828125 257.929688 195.886719 C 257.3125 195.949219 256.691406 195.976562 256.070312 195.976562 C 255.449219 195.972656 254.828125 195.941406 254.210938 195.878906 C 253.59375 195.816406 252.980469 195.726562 252.371094 195.601562 C 251.761719 195.480469 251.160156 195.328125 250.566406 195.148438 C 249.972656 194.964844 249.386719 194.753906 248.8125 194.515625 C 248.242188 194.277344 247.679688 194.011719 247.132812 193.714844 C 246.585938 193.421875 246.054688 193.101562 245.539062 192.753906 C 245.023438 192.410156 244.523438 192.039062 244.042969 191.644531 C 243.5625 191.246094 243.105469 190.828125 242.667969 190.390625 C 242.226562 189.949219 241.8125 189.488281 241.417969 189.007812 C 241.023438 188.527344 240.65625 188.027344 240.308594 187.507812 C 239.964844 186.992188 239.648438 186.457031 239.355469 185.910156 C 239.0625 185.359375 238.796875 184.796875 238.558594 184.222656 C 238.324219 183.648438 238.113281 183.0625 237.933594 182.46875 C 237.753906 181.871094 237.601562 181.269531 237.480469 180.660156 C 237.359375 180.050781 237.269531 179.433594 237.210938 178.816406 C 237.148438 178.195312 237.117188 177.578125 237.117188 176.953125 C 237.121094 176.328125 237.15625 175.707031 237.21875 175.085938 C 237.285156 174.464844 237.378906 173.847656 237.503906 173.234375 C 237.628906 172.621094 237.78125 172.019531 237.964844 171.421875 C 238.148438 170.824219 238.363281 170.238281 238.601562 169.660156 C 238.84375 169.085938 239.113281 168.523438 239.410156 167.972656 C 239.703125 167.421875 240.027344 166.886719 240.375 166.371094 C 240.722656 165.851562 241.097656 165.351562 241.496094 164.871094 C 241.890625 164.390625 242.3125 163.929688 242.753906 163.488281 C 243.199219 163.046875 243.660156 162.628906 244.144531 162.234375 C 244.628906 161.839844 245.128906 161.46875 245.648438 161.125 C 246.167969 160.777344 246.703125 160.460938 247.253906 160.167969 C 247.804688 159.875 248.371094 159.609375 248.945312 159.371094 C 249.523438 159.132812 250.109375 158.921875 250.707031 158.742188 C 251.304688 158.5625 251.910156 158.414062 252.523438 158.292969 C 253.132812 158.171875 253.75 158.082031 254.371094 158.019531 C 254.992188 157.960938 255.613281 157.929688 256.238281 157.933594 Z M 256.238281 193.03125 C 256.761719 193.03125 257.285156 193 257.808594 192.945312 C 258.328125 192.894531 258.847656 192.8125 259.359375 192.707031 C 259.875 192.605469 260.382812 192.472656 260.882812 192.320312 C 261.382812 192.164062 261.875 191.984375 262.359375 191.78125 C 262.84375 191.578125 263.316406 191.351562 263.777344 191.101562 C 264.238281 190.851562 264.683594 190.582031 265.121094 190.289062 C 265.554688 189.992188 265.972656 189.679688 266.378906 189.34375 C 266.78125 189.011719 267.167969 188.65625 267.539062 188.28125 C 267.90625 187.910156 268.257812 187.519531 268.585938 187.113281 C 268.917969 186.707031 269.230469 186.28125 269.519531 185.84375 C 269.808594 185.40625 270.074219 184.957031 270.320312 184.492188 C 270.566406 184.027344 270.789062 183.554688 270.988281 183.066406 C 271.1875 182.582031 271.359375 182.085938 271.511719 181.585938 C 271.660156 181.082031 271.785156 180.570312 271.886719 180.054688 C 271.988281 179.539062 272.0625 179.023438 272.113281 178.5 C 272.160156 177.976562 272.183594 177.453125 272.183594 176.925781 C 272.183594 176.402344 272.15625 175.878906 272.101562 175.355469 C 272.046875 174.832031 271.96875 174.316406 271.867188 173.800781 C 271.761719 173.285156 271.632812 172.777344 271.480469 172.273438 C 271.324219 171.773438 271.148438 171.28125 270.945312 170.796875 C 270.742188 170.3125 270.519531 169.835938 270.269531 169.375 C 270.019531 168.914062 269.75 168.464844 269.457031 168.027344 C 269.164062 167.589844 268.851562 167.171875 268.519531 166.765625 C 268.183594 166.359375 267.832031 165.972656 267.460938 165.601562 C 267.089844 165.234375 266.699219 164.882812 266.292969 164.550781 C 265.886719 164.21875 265.464844 163.90625 265.03125 163.613281 C 264.59375 163.324219 264.144531 163.054688 263.679688 162.808594 C 263.21875 162.5625 262.742188 162.339844 262.257812 162.140625 C 261.773438 161.941406 261.28125 161.765625 260.777344 161.613281 C 260.277344 161.460938 259.769531 161.335938 259.253906 161.234375 C 258.738281 161.132812 258.222656 161.054688 257.699219 161.003906 C 257.175781 160.953125 256.652344 160.929688 256.128906 160.929688 C 255.605469 160.929688 255.082031 160.957031 254.5625 161.011719 C 254.039062 161.0625 253.519531 161.140625 253.007812 161.242188 C 252.492188 161.347656 251.984375 161.476562 251.484375 161.628906 C 250.980469 161.78125 250.488281 161.957031 250.003906 162.160156 C 249.519531 162.363281 249.046875 162.585938 248.585938 162.835938 C 248.125 163.082031 247.675781 163.351562 247.238281 163.644531 C 246.804688 163.9375 246.382812 164.25 245.976562 164.582031 C 245.574219 164.917969 245.183594 165.269531 244.816406 165.640625 C 244.445312 166.011719 244.09375 166.402344 243.761719 166.808594 C 243.429688 167.214844 243.117188 167.636719 242.824219 168.074219 C 242.535156 168.507812 242.265625 168.960938 242.019531 169.421875 C 241.769531 169.886719 241.546875 170.359375 241.347656 170.84375 C 241.148438 171.332031 240.96875 171.824219 240.820312 172.328125 C 240.667969 172.828125 240.539062 173.339844 240.4375 173.851562 C 240.335938 174.367188 240.257812 174.886719 240.207031 175.410156 C 240.15625 175.933594 240.128906 176.457031 240.128906 176.980469 C 240.132812 177.507812 240.160156 178.035156 240.214844 178.558594 C 240.265625 179.082031 240.347656 179.601562 240.449219 180.117188 C 240.554688 180.632812 240.683594 181.144531 240.839844 181.648438 C 240.992188 182.152344 241.171875 182.648438 241.375 183.132812 C 241.578125 183.617188 241.804688 184.09375 242.054688 184.558594 C 242.300781 185.019531 242.574219 185.472656 242.867188 185.910156 C 243.160156 186.347656 243.476562 186.769531 243.808594 187.175781 C 244.144531 187.582031 244.5 187.96875 244.871094 188.339844 C 245.246094 188.714844 245.632812 189.066406 246.042969 189.398438 C 246.449219 189.730469 246.871094 190.042969 247.308594 190.335938 C 247.746094 190.628906 248.199219 190.898438 248.664062 191.144531 C 249.128906 191.390625 249.601562 191.617188 250.089844 191.816406 C 250.574219 192.019531 251.070312 192.195312 251.574219 192.347656 C 252.078125 192.5 252.589844 192.625 253.105469 192.726562 C 253.621094 192.828125 254.140625 192.90625 254.664062 192.957031 C 255.1875 193.007812 255.710938 193.03125 256.238281 193.03125 Z M 256.238281 193.03125" stroke-linecap="round" />
</g>
		<g transform="matrix(2.77 0 0 2.73 154.62 70.12)" id="yBHfM4YCFE3z0JG1MRLQo"  >
<path style="stroke: none; stroke-width: 1; stroke-dasharray: none; stroke-linecap: butt; stroke-dashoffset: 0; stroke-linejoin: miter; stroke-miterlimit: 4; fill: rgb(0,150,255); fill-rule: nonzero; opacity: 1;" vector-effect="non-scaling-stroke"  transform=" translate(-240.17, -193.09)" d="M 237.089844 193.394531 L 240.464844 190.023438 C 241.304688 191.019531 242.230469 191.925781 243.242188 192.742188 L 239.824219 196.15625 C 239.59375 195.507812 239.234375 194.941406 238.746094 194.453125 L 238.65625 194.363281 C 238.203125 193.929688 237.679688 193.605469 237.089844 193.394531 Z M 237.089844 193.394531" stroke-linecap="round" />
</g>
		<g transform="matrix(2.77 0 0 2.73 -63.8 118.28)" id="3pnd6FoSkDWPHXwzwToaf"  >
<path style="stroke: none; stroke-width: 1; stroke-dasharray: none; stroke-linecap: butt; stroke-dashoffset: 0; stroke-linejoin: miter; stroke-miterlimit: 4; fill: rgb(255,255,255); fill-rule: nonzero; opacity: 1;" vector-effect="non-scaling-stroke"  transform=" translate(-161.32, -210.73)" d="M 175.316406 221.980469 L 197.757812 199.480469 L 152.453125 199.480469 L 124.875 221.980469 L 129.488281 221.980469 L 153.003906 202.671875 L 175.28125 221.980469" stroke-linecap="round" />
</g>
		<g transform="matrix(2.77 0 0 2.73 37.09 152.54)" id="GmQubfuKj1s7izSOTqwBg"  >
<path style="stroke: none; stroke-width: 1; stroke-dasharray: none; stroke-linecap: butt; stroke-dashoffset: 0; stroke-linejoin: miter; stroke-miterlimit: 4; fill: rgb(255,255,255); fill-rule: nonzero; opacity: 1;" vector-effect="non-scaling-stroke"  transform=" translate(-197.74, -223.28)" d="M 234.984375 240.625 L 234.984375 219.953125 L 230.046875 219.953125 L 230.046875 236.53125 L 205.382812 216.074219 L 220.65625 202.035156 L 234.984375 216.074219 L 238.320312 216.074219 L 221.617188 199.472656 L 201.238281 199.582031 L 152.667969 247.089844 L 156.648438 247.089844 L 184.488281 220.914062 L 215.238281 247.082031 L 242.808594 247.082031 L 235.019531 240.613281" stroke-linecap="round" />
</g>
		<g transform="matrix(2.77 0 0 2.73 107.28 117.4)" id="JcA-xhKMRADr0fTYMGtyU"  >
<path style="stroke: none; stroke-width: 1; stroke-dasharray: none; stroke-linecap: butt; stroke-dashoffset: 0; stroke-linejoin: miter; stroke-miterlimit: 4; fill: rgb(255,255,255); fill-rule: nonzero; opacity: 1;" vector-effect="non-scaling-stroke"  transform=" translate(-223.08, -210.41)" d="M 224.457031 208.175781 L 221.699219 208.175781 L 221.699219 212.644531 L 224.457031 212.644531 L 224.457031 208.175781" stroke-linecap="round" />
</g>
		<g transform="matrix(2.77 0 0 2.73 94.54 117.4)" id="umQCs8djObdYEovj4tl62"  >
<path style="stroke: none; stroke-width: 1; stroke-dasharray: none; stroke-linecap: butt; stroke-dashoffset: 0; stroke-linejoin: miter; stroke-miterlimit: 4; fill: rgb(255,255,255); fill-rule: nonzero; opacity: 1;" vector-effect="non-scaling-stroke"  transform=" translate(-218.48, -210.41)" d="M 217.101562 212.644531 L 219.859375 212.644531 L 219.859375 208.175781 L 217.101562 208.175781 L 217.101562 212.644531" stroke-linecap="round" />
</g>
		<g transform="matrix(2.77 0 0 2.73 13.4 192.53)" id="Ac0ZL5P11xhcyKET0nxDG"  >
<path style="stroke: none; stroke-width: 1; stroke-dasharray: none; stroke-linecap: butt; stroke-dashoffset: 0; stroke-linejoin: miter; stroke-miterlimit: 4; fill: rgb(255,255,255); fill-rule: nonzero; opacity: 1;" vector-effect="non-scaling-stroke"  transform=" translate(-189.19, -237.93)" d="M 186.476562 242.714844 L 191.90625 242.714844 L 191.90625 233.140625 L 186.476562 233.140625 L 186.476562 242.714844" stroke-linecap="round" />
</g>
		<g transform="matrix(2.77 0 0 2.73 -14.21 192.53)" id="4-i8lo_AvOSORnpsK7jwZ"  >
<path style="stroke: none; stroke-width: 1; stroke-dasharray: none; stroke-linecap: butt; stroke-dashoffset: 0; stroke-linejoin: miter; stroke-miterlimit: 4; fill: rgb(255,255,255); fill-rule: nonzero; opacity: 1;" vector-effect="non-scaling-stroke"  transform=" translate(-179.22, -237.93)" d="M 176.503906 242.714844 L 181.929688 242.714844 L 181.929688 233.140625 L 176.503906 233.140625 L 176.503906 242.714844" stroke-linecap="round" />
</g>
		<g transform="matrix(2.77 0 0 2.73 -76.7 127.12)" id="xuJHfD1J8c1TBzSkm0885"  >
<path style="stroke: none; stroke-width: 1; stroke-dasharray: none; stroke-linecap: butt; stroke-dashoffset: 0; stroke-linejoin: miter; stroke-miterlimit: 4; fill: rgb(255,255,255); fill-rule: nonzero; opacity: 1;" vector-effect="non-scaling-stroke"  transform=" translate(-156.66, -213.97)" d="M 158.828125 217.535156 L 158.828125 210.414062 L 154.488281 210.414062 L 154.488281 217.535156 L 158.828125 217.535156" stroke-linecap="round" />
</g>
		<g transform="matrix(2.77 0 0 2.73 -96.4 127.12)" id="YedlhLWj7VBGq7KbHzgkA"  >
<path style="stroke: none; stroke-width: 1; stroke-dasharray: none; stroke-linecap: butt; stroke-dashoffset: 0; stroke-linejoin: miter; stroke-miterlimit: 4; fill: rgb(255,255,255); fill-rule: nonzero; opacity: 1;" vector-effect="non-scaling-stroke"  transform=" translate(-149.55, -213.97)" d="M 147.378906 217.535156 L 151.730469 217.535156 L 151.730469 210.414062 L 147.378906 210.414062 L 147.378906 217.535156" stroke-linecap="round" />
</g>
		<g transform="matrix(2.77 0 0 2.73 11.6 -64.91)" id="Odd3VboJ0egbR8kWEcUGW"  >
<path style="stroke: none; stroke-width: 1; stroke-dasharray: none; stroke-linecap: butt; stroke-dashoffset: 0; stroke-linejoin: miter; stroke-miterlimit: 4; fill: rgb(0,150,255); fill-rule: nonzero; opacity: 1;" vector-effect="non-scaling-stroke"  transform=" translate(0, 0)" d="M 2.14063 54.00977 L 2.14063 -50.33398 L 12.59766 -46.783199999999994 L 12.59766 -14.228509999999993 L 16.86329 -15.982419999999992 L 16.86329 -48.220699999999994 L 2.14063 -53.220699999999994 L -0.17578000000000005 -54.00975999999999 L -2.1289100000000003 -53.11131999999999 L -16.86328 -46.357409999999994 L -16.86328 -20.912099999999995 L -13.585939999999999 -19.306629999999995 L -10.62891 -17.869129999999995 L -10.62891 54.009780000000006 z M 2.14063 54.00977" stroke-linecap="round" />
</g>
		<g transform="matrix(2.77 0 0 2.73 -91.91 -73.94)" id="i_Wua6u69gkxeLW_F0uPu" clip-path="url(#CLIPPATH_116)"  >
<clipPath id="CLIPPATH_116" >
	<path transform="matrix(1 0 0 1 -0.17 0.08) translate(-151, -140.39)" id="h" d="M 124 77.789062 L 178 77.789062 L 178 203 L 124 203 Z M 124 77.789062" stroke-linecap="round" />
</clipPath>
<path style="stroke: none; stroke-width: 1; stroke-dasharray: none; stroke-linecap: butt; stroke-dashoffset: 0; stroke-linejoin: miter; stroke-miterlimit: 4; fill: rgb(255,255,255); fill-rule: nonzero; opacity: 1;" vector-effect="non-scaling-stroke"  transform=" translate(-151.17, -140.32)" d="M 176.4375 85.457031 L 173.726562 85.457031 L 160.429688 80.929688 L 160.429688 80.386719 C 160.429688 80.046875 160.367188 79.722656 160.238281 79.410156 C 160.109375 79.101562 159.925781 78.824219 159.6875 78.585938 C 159.449219 78.347656 159.171875 78.164062 158.859375 78.035156 C 158.550781 77.90625 158.226562 77.839844 157.886719 77.839844 C 157.550781 77.839844 157.226562 77.90625 156.914062 78.035156 C 156.605469 78.164062 156.328125 78.347656 156.089844 78.585938 C 155.851562 78.824219 155.667969 79.101562 155.539062 79.410156 C 155.410156 79.722656 155.347656 80.046875 155.347656 80.386719 L 155.347656 80.828125 L 139.972656 85.496094 L 127.597656 85.496094 C 127.421875 85.359375 127.222656 85.265625 127.003906 85.222656 C 126.785156 85.175781 126.566406 85.179688 126.347656 85.230469 C 126.128906 85.285156 125.933594 85.382812 125.761719 85.523438 C 125.585938 85.664062 125.453125 85.835938 125.355469 86.039062 C 125.261719 86.242188 125.214844 86.457031 125.214844 86.679688 C 125.214844 86.90625 125.265625 87.117188 125.363281 87.320312 C 125.460938 87.523438 125.59375 87.695312 125.769531 87.835938 C 125.945312 87.972656 126.140625 88.070312 126.359375 88.121094 L 126.359375 101.707031 C 126.144531 101.789062 125.976562 101.921875 125.847656 102.109375 C 125.71875 102.296875 125.652344 102.503906 125.652344 102.730469 L 125.753906 103.753906 C 125.484375 103.941406 125.28125 104.1875 125.140625 104.484375 C 125.003906 104.785156 124.953125 105.097656 124.984375 105.425781 C 125.019531 105.753906 125.132812 106.050781 125.324219 106.316406 C 125.519531 106.578125 125.769531 106.777344 126.070312 106.90625 L 126.222656 108.03125 C 126.222656 108.03125 128.394531 109.007812 127.453125 110.140625 C 126.511719 111.273438 124.949219 109.5 124.949219 109.5 C 124.820312 109.703125 124.78125 109.921875 124.832031 110.160156 C 124.953125 110.609375 125.195312 110.976562 125.558594 111.265625 C 125.921875 111.554688 126.335938 111.707031 126.796875 111.730469 C 127.261719 111.75 127.6875 111.628906 128.074219 111.371094 C 128.457031 111.113281 128.730469 110.769531 128.890625 110.332031 C 128.96875 110.050781 128.988281 109.761719 128.945312 109.472656 C 128.90625 109.183594 128.808594 108.910156 128.65625 108.660156 C 128.503906 108.410156 128.308594 108.203125 128.070312 108.03125 C 127.832031 107.863281 127.566406 107.746094 127.28125 107.6875 L 127.371094 106.863281 C 127.714844 106.726562 127.988281 106.507812 128.195312 106.203125 C 128.402344 105.898438 128.507812 105.5625 128.511719 105.195312 C 128.511719 104.550781 128.242188 104.050781 127.707031 103.691406 L 127.816406 102.675781 C 127.816406 102.429688 127.738281 102.207031 127.589844 102.007812 C 127.4375 101.8125 127.242188 101.679688 127 101.617188 L 127 88.085938 C 127.222656 88.03125 127.421875 87.9375 127.597656 87.796875 L 155.375 87.796875 L 155.375 121.308594 L 143.941406 125.195312 L 143.941406 202.796875 L 147.8125 199.664062 L 147.8125 126.519531 L 155.953125 123.746094 L 155.953125 197.644531 L 172.621094 197.644531 L 172.621094 129.046875 L 171.652344 128.574219 L 168.75 127.160156 L 165.855469 125.75 L 160.429688 123.105469 L 160.429688 87.757812 L 170.027344 87.757812 L 170.027344 91.199219 L 176.355469 91.199219 L 176.355469 87.757812 C 176.511719 87.757812 176.660156 87.730469 176.804688 87.671875 C 176.945312 87.609375 177.074219 87.527344 177.183594 87.417969 C 177.292969 87.308594 177.375 87.179688 177.433594 87.039062 C 177.496094 86.894531 177.523438 86.746094 177.523438 86.589844 C 177.523438 86.4375 177.496094 86.285156 177.433594 86.144531 C 177.375 86 177.292969 85.875 177.183594 85.765625 C 177.074219 85.65625 176.945312 85.570312 176.804688 85.511719 C 176.660156 85.453125 176.511719 85.421875 176.355469 85.421875 Z M 127.597656 104.480469 C 127.777344 104.722656 127.851562 104.992188 127.816406 105.289062 C 127.785156 105.585938 127.652344 105.832031 127.425781 106.027344 C 127.21875 106.207031 126.976562 106.292969 126.703125 106.292969 C 126.421875 106.289062 126.175781 106.195312 125.960938 106.011719 C 125.707031 105.789062 125.582031 105.507812 125.582031 105.167969 C 125.585938 104.917969 125.660156 104.691406 125.808594 104.488281 C 126.035156 104.1875 126.335938 104.035156 126.710938 104.035156 C 127.089844 104.039062 127.394531 104.1875 127.625 104.488281 Z M 127.164062 102.597656 C 127.167969 102.734375 127.121094 102.851562 127.023438 102.949219 C 126.929688 103.046875 126.8125 103.09375 126.675781 103.09375 C 126.539062 103.09375 126.421875 103.046875 126.324219 102.949219 C 126.226562 102.851562 126.179688 102.734375 126.179688 102.597656 C 126.179688 102.460938 126.230469 102.34375 126.328125 102.246094 C 126.421875 102.148438 126.539062 102.101562 126.675781 102.097656 C 126.789062 102.101562 126.886719 102.136719 126.972656 102.207031 C 127.117188 102.300781 127.191406 102.433594 127.191406 102.605469 Z M 126.675781 87.105469 C 126.542969 87.113281 126.425781 87.074219 126.328125 86.984375 C 126.226562 86.890625 126.175781 86.78125 126.167969 86.644531 C 126.164062 86.511719 126.207031 86.394531 126.300781 86.296875 C 126.390625 86.199219 126.503906 86.148438 126.640625 86.148438 C 126.773438 86.144531 126.886719 86.191406 126.984375 86.285156 C 127.078125 86.378906 127.128906 86.492188 127.128906 86.625 C 127.128906 86.753906 127.089844 86.867188 127 86.960938 C 126.914062 87.054688 126.804688 87.101562 126.675781 87.105469 Z M 157.878906 78.808594 C 158.070312 78.808594 158.25 78.847656 158.425781 78.917969 C 158.601562 78.992188 158.757812 79.09375 158.890625 79.230469 C 159.023438 79.363281 159.128906 79.519531 159.199219 79.691406 C 159.273438 79.867188 159.308594 80.050781 159.308594 80.242188 C 159.316406 80.324219 159.316406 80.410156 159.308594 80.496094 C 159.261719 80.777344 159.140625 81.027344 158.941406 81.234375 C 158.746094 81.445312 158.507812 81.582031 158.226562 81.648438 C 157.945312 81.710938 157.671875 81.691406 157.402344 81.589844 C 157.132812 81.488281 156.914062 81.320312 156.75 81.082031 C 156.613281 80.894531 156.527344 80.683594 156.496094 80.449219 C 156.484375 80.378906 156.484375 80.308594 156.496094 80.242188 C 156.496094 80.054688 156.53125 79.875 156.601562 79.703125 C 156.667969 79.53125 156.769531 79.378906 156.898438 79.246094 C 157.027344 79.109375 157.175781 79.007812 157.347656 78.929688 C 157.515625 78.855469 157.695312 78.816406 157.878906 78.808594 Z M 142.378906 85.457031 L 155.375 81.507812 L 155.375 85.457031 Z M 160.464844 85.457031 L 160.464844 81.691406 L 171.445312 85.457031 Z M 160.464844 85.457031" stroke-linecap="round" />
</g>
		<g transform="matrix(2.77 0 0 2.73 102.88 -38.43)" id="Nd1TIRk6HxtUgLOYuDybL"  >
<path style="stroke: none; stroke-width: 1; stroke-dasharray: none; stroke-linecap: butt; stroke-dashoffset: 0; stroke-linejoin: miter; stroke-miterlimit: 4; fill: rgb(255,255,255); fill-rule: nonzero; opacity: 1;" vector-effect="non-scaling-stroke"  transform=" translate(-221.49, -153.33)" d="M 245.449219 127.886719 C 245.449219 127.886719 244.433594 129.109375 243.800781 128.347656 C 243.167969 127.585938 244.617188 126.933594 244.617188 126.933594 L 244.699219 126.128906 C 244.921875 126.035156 245.101562 125.886719 245.238281 125.683594 C 245.371094 125.480469 245.4375 125.257812 245.4375 125.015625 C 245.441406 124.585938 245.261719 124.253906 244.90625 124.019531 L 244.976562 123.332031 C 244.980469 123.175781 244.9375 123.035156 244.847656 122.910156 C 244.757812 122.78125 244.644531 122.695312 244.5 122.640625 L 244.5 113.582031 C 244.753906 113.535156 244.957031 113.40625 245.109375 113.199219 C 245.265625 112.992188 245.328125 112.757812 245.300781 112.5 C 245.273438 112.242188 245.164062 112.027344 244.96875 111.859375 C 244.773438 111.6875 244.546875 111.605469 244.289062 111.609375 C 244.0625 111.601562 243.859375 111.671875 243.683594 111.816406 L 235.398438 111.816406 L 225.160156 108.691406 L 225.160156 108.394531 C 225.160156 108.167969 225.117188 107.953125 225.03125 107.746094 C 224.945312 107.539062 224.824219 107.355469 224.664062 107.195312 C 224.507812 107.035156 224.324219 106.914062 224.117188 106.828125 C 223.910156 106.742188 223.695312 106.699219 223.46875 106.699219 C 223.246094 106.699219 223.03125 106.742188 222.824219 106.828125 C 222.617188 106.914062 222.433594 107.035156 222.273438 107.195312 C 222.117188 107.355469 221.992188 107.539062 221.90625 107.746094 C 221.820312 107.953125 221.777344 108.167969 221.777344 108.394531 L 221.777344 108.753906 L 212.90625 111.816406 L 211.097656 111.816406 C 210.878906 111.816406 210.695312 111.894531 210.539062 112.046875 C 210.386719 112.203125 210.308594 112.386719 210.308594 112.605469 C 210.308594 112.824219 210.386719 113.007812 210.539062 113.164062 C 210.695312 113.316406 210.878906 113.394531 211.097656 113.394531 L 211.097656 115.675781 L 215.328125 115.675781 L 215.328125 113.367188 L 221.734375 113.367188 L 221.734375 133.050781 L 213.175781 130.140625 L 197.402344 136.671875 L 197.402344 197.679688 L 201.292969 197.679688 L 201.292969 137.894531 L 213.332031 132.933594 L 213.332031 197.714844 L 223.859375 197.714844 L 226.121094 199.953125 L 226.121094 134.507812 L 225.214844 134.183594 L 225.214844 113.347656 L 243.738281 113.347656 C 243.855469 113.441406 243.984375 113.503906 244.128906 113.539062 L 244.128906 122.597656 C 243.96875 122.640625 243.835938 122.730469 243.734375 122.863281 C 243.636719 122.996094 243.585938 123.144531 243.585938 123.3125 L 243.65625 123.992188 C 243.304688 124.234375 243.125 124.566406 243.125 124.996094 C 243.121094 125.246094 243.191406 125.472656 243.328125 125.675781 C 243.46875 125.882812 243.652344 126.03125 243.882812 126.121094 L 243.9375 126.671875 C 243.75 126.714844 243.578125 126.792969 243.417969 126.902344 C 243.261719 127.015625 243.132812 127.15625 243.03125 127.320312 C 242.933594 127.484375 242.867188 127.664062 242.839844 127.855469 C 242.8125 128.042969 242.820312 128.234375 242.871094 128.421875 C 242.933594 128.613281 243.035156 128.78125 243.175781 128.929688 C 243.3125 129.078125 243.476562 129.191406 243.664062 129.265625 C 243.851562 129.34375 244.046875 129.378906 244.25 129.371094 C 244.453125 129.359375 244.644531 129.308594 244.824219 129.21875 C 245.21875 129.035156 245.46875 128.734375 245.574219 128.3125 C 245.59375 128.152344 245.550781 128.011719 245.449219 127.886719 Z M 223.46875 107.332031 C 223.726562 107.347656 223.941406 107.445312 224.117188 107.632812 C 224.289062 107.816406 224.378906 108.039062 224.375 108.292969 C 224.378906 108.339844 224.378906 108.382812 224.375 108.429688 C 224.355469 108.589844 224.296875 108.734375 224.203125 108.863281 C 224.011719 109.125 223.757812 109.253906 223.433594 109.253906 C 223.144531 109.261719 222.90625 109.152344 222.71875 108.929688 C 222.605469 108.792969 222.53125 108.640625 222.492188 108.464844 C 222.488281 108.410156 222.488281 108.351562 222.492188 108.292969 C 222.492188 108.164062 222.515625 108.039062 222.566406 107.921875 C 222.613281 107.800781 222.683594 107.695312 222.777344 107.605469 C 222.871094 107.515625 222.976562 107.445312 223.097656 107.398438 C 223.214844 107.351562 223.339844 107.328125 223.46875 107.332031 Z M 214.425781 111.789062 L 221.75 109.261719 L 221.75 111.789062 Z M 225.132812 111.789062 L 225.132812 109.144531 L 233.851562 111.789062 Z M 243.945312 112.578125 C 243.945312 112.492188 243.976562 112.414062 244.039062 112.355469 C 244.101562 112.292969 244.175781 112.261719 244.261719 112.261719 C 244.351562 112.261719 244.425781 112.292969 244.488281 112.355469 C 244.550781 112.414062 244.578125 112.492188 244.578125 112.578125 C 244.578125 112.664062 244.550781 112.742188 244.488281 112.800781 C 244.425781 112.863281 244.351562 112.894531 244.261719 112.894531 C 244.074219 112.875 243.976562 112.769531 243.972656 112.578125 Z M 244.046875 123.03125 C 244.105469 122.984375 244.171875 122.960938 244.246094 122.957031 C 244.332031 122.957031 244.40625 122.988281 244.472656 123.050781 C 244.542969 123.117188 244.578125 123.195312 244.578125 123.292969 C 244.597656 123.394531 244.570312 123.488281 244.503906 123.566406 C 244.4375 123.644531 244.351562 123.683594 244.25 123.683594 C 244.144531 123.683594 244.0625 123.644531 243.996094 123.566406 C 243.925781 123.488281 243.902344 123.394531 243.917969 123.292969 C 243.929688 123.183594 243.980469 123.09375 244.074219 123.03125 Z M 243.800781 125.59375 C 243.625 125.441406 243.535156 125.25 243.539062 125.015625 C 243.539062 124.84375 243.589844 124.691406 243.695312 124.554688 C 243.792969 124.429688 243.917969 124.34375 244.070312 124.296875 C 244.222656 124.253906 244.375 124.257812 244.527344 124.308594 C 244.675781 124.363281 244.796875 124.453125 244.890625 124.582031 C 244.984375 124.710938 245.03125 124.855469 245.03125 125.015625 C 245.03125 125.242188 244.945312 125.433594 244.777344 125.585938 C 244.636719 125.710938 244.472656 125.773438 244.28125 125.777344 C 244.101562 125.773438 243.941406 125.714844 243.800781 125.59375 Z M 243.800781 125.59375" stroke-linecap="round" />
</g>
		<g transform="matrix(2.77 0 0 2.73 -132.93 94.03)" id="dbeveEmARBlEQvm0zDRFM"  >
<path style="stroke: none; stroke-width: 1; stroke-dasharray: none; stroke-linecap: butt; stroke-dashoffset: 0; stroke-linejoin: miter; stroke-miterlimit: 4; fill: rgb(0,150,255); fill-rule: nonzero; opacity: 1;" vector-effect="non-scaling-stroke"  transform=" translate(-136.36, -201.85)" d="M 135.46875 196.699219 C 135.171875 196.410156 134.832031 196.1875 134.449219 196.03125 C 134.066406 195.875 133.667969 195.796875 133.253906 195.796875 C 132.84375 195.796875 132.445312 195.875 132.0625 196.03125 C 131.679688 196.1875 131.339844 196.410156 131.042969 196.699219 L 130.953125 196.800781 C 130.34375 197.40625 130.042969 198.140625 130.050781 199 C 130.046875 199.863281 130.347656 200.59375 130.953125 201.203125 L 137.675781 207.90625 L 142.667969 203.867188 Z M 135.46875 196.699219" stroke-linecap="round" />
</g>
		<g transform="matrix(2.77 0 0 2.73 134.9 89.17)" id="2Qky07cq-0820tXQonSfM"  >
<path style="stroke: none; stroke-width: 1; stroke-dasharray: none; stroke-linecap: butt; stroke-dashoffset: 0; stroke-linejoin: miter; stroke-miterlimit: 4; fill: rgb(0,150,255); fill-rule: nonzero; opacity: 1;" vector-effect="non-scaling-stroke"  transform=" translate(-233.05, -200.07)" d="M 237.761719 199.890625 C 238.371094 199.28125 238.671875 198.550781 238.664062 197.6875 C 238.667969 196.828125 238.367188 196.09375 237.761719 195.488281 L 237.660156 195.394531 C 237.367188 195.101562 237.027344 194.875 236.644531 194.71875 C 236.261719 194.558594 235.863281 194.480469 235.449219 194.480469 C 235.035156 194.480469 234.636719 194.558594 234.253906 194.71875 C 233.871094 194.875 233.53125 195.101562 233.238281 195.394531 L 227.429688 201.175781 L 231.953125 205.660156 Z M 237.761719 199.890625" stroke-linecap="round" />
</g>
</g>
</g>
</svg>